<svg width="193" height="52" viewBox="0 0 600 200" xmlns="http://www.w3.org/2000/svg">
  <!-- Background -->
  <rect width="100%" height="100%" fill="white" />

  <!-- Sun -->
  <circle cx="140" cy="100" r="50" fill="#FBBF24" />

  <!-- Mountains -->
  <path d="M100 150 L140 80 L180 150 Z" fill="#1E3A8A" />
  <path d="M160 150 L200 90 L240 150 Z" fill="#1E3A8A" />
  <path d="M120 150 L180 80 L240 150 Z" fill="#1E3A8A" opacity="0.7" />

  <!-- Palm Trees -->
  <path d="M180 90 Q185 75 190 90 L190 150" stroke="black" stroke-width="2" />
  <path d="M190 90 Q195 75 200 90 L200 150" stroke="black" stroke-width="2" />
  <circle cx="195" cy="75" r="4" fill="black" />

  <!-- Birds -->
  <path d="M220 70 Q225 65 230 70" stroke="black" stroke-width="1" fill="none" />
  <path d="M230 70 Q235 65 240 70" stroke="black" stroke-width="1" fill="none" />

  <!-- Bus -->
  <rect x="50" y="120" width="80" height="40" fill="#FBBF24" />
  <rect x="60" y="130" width="30" height="20" fill="#ffffff" />
  <rect x="95" y="130" width="30" height="20" fill="#1E3A8A" />
  <circle cx="70" cy="160" r="8" fill="black" />
  <circle cx="110" cy="160" r="8" fill="black" />

  <!-- Text -->
  <text x="300" y="120" font-family="Arial" font-size="48" fill="black" font-weight="bold">VOYAGE</text>
</svg>


